<?xml version="1.0" encoding="UTF-8" standalone="no"?>
<!-- Uploaded to: SVG Repo, www.svgrepo.com, Transformed by: SVG Repo Mixer Tools -->

<svg
   width="800px"
   height="800px"
   viewBox="0 0 24 24"
   fill="none"
   version="1.1"
   id="svg3"
   sodipodi:docname="archive-svgrepo-com.svg"
   inkscape:version="1.3.2 (091e20e, 2023-11-25, custom)"
   xmlns:inkscape="http://www.inkscape.org/namespaces/inkscape"
   xmlns:sodipodi="http://sodipodi.sourceforge.net/DTD/sodipodi-0.dtd"
   xmlns="http://www.w3.org/2000/svg"
   xmlns:svg="http://www.w3.org/2000/svg">
  <defs
     id="defs3" />
  <sodipodi:namedview
     id="namedview3"
     pagecolor="#ffffff"
     bordercolor="#000000"
     borderopacity="0.25"
     inkscape:showpageshadow="2"
     inkscape:pageopacity="0.0"
     inkscape:pagecheckerboard="0"
     inkscape:deskcolor="#d1d1d1"
     inkscape:zoom="0.508125"
     inkscape:cx="385.73186"
     inkscape:cy="73.800738"
     inkscape:window-width="1920"
     inkscape:window-height="1009"
     inkscape:window-x="-8"
     inkscape:window-y="-8"
     inkscape:window-maximized="1"
     inkscape:current-layer="svg3" />
  <g
     id="SVGRepo_bgCarrier"
     stroke-width="0" />
  <g
     id="SVGRepo_tracerCarrier"
     stroke-linecap="round"
     stroke-linejoin="round" />
  <g
     id="SVGRepo_iconCarrier">
    <g
       stroke="#000000"
       stroke-width="2"
       id="g3">
      <path
         stroke-linejoin="round"
         d="M3 5a1 1 0 011-1h16a1 1 0 011 1v3H3V5z"
         id="path1" />
      <path
         stroke-linecap="round"
         d="M9.5 13h5"
         id="path2" />
      <path
         stroke-linejoin="round"
         d="M4 8h16v11a1 1 0 01-1 1H5a1 1 0 01-1-1V8z"
         id="path3" />
    </g>
  </g>
  <path
     style="fill:#deaa87;stroke-width:2.10129"
     d="M 167.28167,466.42066 V 300.123 H 400 632.71833 V 466.42066 632.71833 H 400 167.28167 Z m 329.83666,-2.13547 c 26.17736,-12.27041 26.50545,-49.45462 0.54217,-61.4459 L 491.51292,400 h -91.53361 -91.5336 l -6.56959,3.23419 c -12.06906,5.94158 -18.67089,16.6278 -18.67089,30.22214 0,16.05141 10.96809,29.88688 26.11211,32.93858 2.24939,0.45329 44.16359,0.75521 93.14268,0.67096 l 89.0529,-0.1532 z"
     id="path4"
     transform="scale(0.03)" />
  <path
     style="fill:#c87137;stroke-width:2.10129"
     d="M 133.82534,200.246 V 167.28167 H 400 666.17466 V 200.246 233.21033 H 400 133.82534 Z"
     id="path5"
     transform="scale(0.03)" />
  <path
     style="fill:#c87137;stroke-width:2.10129"
     d="M 167.28167,466.42066 V 300.123 H 400 632.71833 V 466.42066 632.71833 H 400 167.28167 Z m 329.80667,-1.5588 c 18.18531,-9.2152 25.3372,-30.12863 16.39038,-47.92852 -2.72222,-5.41592 -8.75505,-11.03327 -15.51307,-14.44471 l -5.90461,-2.98063 h -92.14125 -92.14124 l -5.84147,3.11347 c -10.5888,5.64377 -16.41365,13.32127 -18.56758,24.47319 -3.32171,17.19797 7.96516,35.37577 24.3643,39.23936 2.03792,0.48013 44.34734,0.91744 94.02093,0.97181 l 90.31562,0.0988 z"
     id="path6"
     transform="scale(0.03)" />
  <path
     style="fill:#e9c6af;stroke-width:2.10129"
     d="M 133.82534,200.246 V 167.28167 H 400 666.17466 V 200.246 233.21033 H 400 133.82534 Z"
     id="path7"
     transform="scale(0.03)" />
  <path
     style="fill:#e9c6af;stroke-width:2.10129"
     d="M 167.28167,466.42066 V 300.123 H 400 632.71833 V 466.42066 632.71833 H 400 167.28167 Z m 331.32674,-1.97512 c 6.70001,-3.84254 12.5204,-9.99269 15.82257,-16.71903 2.32008,-4.72586 2.65847,-6.6024 2.66207,-14.76218 0.004,-8.22763 -0.32264,-10.01347 -2.72205,-14.8994 -3.17102,-6.45715 -9.29153,-12.46335 -16.34054,-16.03535 l -4.9761,-2.52158 h -93.32553 -93.32554 l -5.84617,3.5101 c -8.01758,4.81382 -10.8713,7.76255 -14.34897,14.8267 -5.68214,11.54207 -4.79227,24.36631 2.42714,34.97828 4.77759,7.0227 10.44256,11.38972 17.09532,13.17847 3.69209,0.9927 24.7221,1.28279 96.23741,1.32747 l 91.51291,0.0572 z"
     id="path8"
     transform="scale(0.03)" />
  <path
     style="fill:#d38d5f;stroke-width:2.10129"
     d="M 133.82534,200.246 V 167.28167 H 400 666.17466 V 200.246 233.21033 H 400 133.82534 Z"
     id="path9"
     transform="scale(0.03)" />
  <path
     style="fill:#deaa87;stroke-width:2.10129"
     d="M 167.28167,466.42066 V 300.123 H 400 632.71833 V 466.42066 632.71833 H 400 167.28167 Z m 330.83835,-1.09167 c 5.593,-2.85334 13.66301,-11.18966 16.56582,-17.11251 2.09361,-4.27179 2.41133,-6.28139 2.41133,-15.25215 0,-8.71079 -0.34551,-11.03315 -2.20184,-14.79966 -2.78446,-5.64969 -9.16541,-12.152 -15.51034,-15.80531 l -4.92005,-2.8329 -94.34516,-0.009 -94.34517,-0.009 -5.37796,3.07695 c -7.18081,4.10844 -11.28376,8.38422 -14.67752,15.29575 -2.52919,5.15081 -2.81622,6.73871 -2.81554,15.57563 6.8e-4,8.86179 0.27315,10.35723 2.7405,15.04148 5.20818,9.88767 12.573,16.2823 20.56426,17.8553 2.33572,0.45977 45.55591,0.88445 96.04488,0.94375 91.54849,0.10752 91.80918,0.10217 95.86679,-1.96787 z"
     id="path10"
     transform="scale(0.03)" />
  <path
     style="fill:#a05a2c;stroke-width:2.10129"
     d="M 133.82534,200.246 V 167.28167 H 400 666.17466 V 200.246 233.21033 H 400 133.82534 Z"
     id="path11"
     transform="scale(0.03)" />
  <path
     style="fill:#deaa87;stroke-width:2.10129"
     d="M 167.28167,466.42066 V 300.123 H 400 632.71833 V 466.42066 632.71833 H 400 167.28167 Z m 329.57267,-0.14732 c 4.17504,-1.21764 15.66668,-12.56933 18.27947,-18.05686 1.48244,-3.1135 1.86743,-6.09517 1.84231,-14.26814 -0.0175,-5.68266 -0.29573,-11.28511 -0.61833,-12.4499 -0.96425,-3.48142 -3.6711,-8.21431 -4.69794,-8.21431 -0.52731,0 -0.95874,-0.52497 -0.95874,-1.16659 0,-1.62253 -4.00016,-5.72148 -5.58358,-5.72148 -0.71747,0 -1.30449,-0.42413 -1.30449,-0.94253 0,-0.51839 -1.92083,-2.0682 -4.2685,-3.44403 l -4.2685,-2.5015 -95.3625,0.009 -95.36249,0.009 -6.0165,3.81723 c -6.34047,4.02278 -9.52846,7.5784 -13.3238,14.86026 -1.89255,3.63112 -2.34678,6.14763 -2.52382,13.98267 -0.12347,5.46368 0.1994,9.8113 0.75405,10.1541 0.53348,0.3297 0.73572,0.97849 0.44941,1.44174 -0.67045,1.08481 1.51148,5.90981 2.67249,5.90981 0.48628,0 0.63259,0.40701 0.32514,0.90448 -0.30745,0.49747 0.92894,2.48217 2.74754,4.41045 1.81861,1.92828 3.07724,3.73529 2.79696,4.01557 -0.28028,0.28027 0.18103,0.5096 1.02513,0.5096 0.84412,0 1.78195,0.6442 2.08409,1.43155 0.86795,2.26185 7.61289,5.15917 12.37065,5.31386 2.38996,0.0777 4.52198,0.3179 4.73784,0.53376 0.92122,0.92122 181.00412,0.39483 184.20411,-0.53843 z"
     id="path12"
     transform="scale(0.03)" />
  <path
     style="fill:#d38d5f;stroke-width:4.20257"
     d="M 133.82534,199.754 V 167.28167 H 399.50799 665.19065 V 199.754 232.22632 H 399.50799 133.82534 Z"
     id="path13"
     transform="scale(0.03)" />
</svg>
