<?xml version="1.0" encoding="UTF-8" standalone="no"?>
<!-- Uploaded to: SVG Repo, www.svgrepo.com, Generator: SVG Repo Mixer Tools -->

<svg
   fill="#000000"
   width="800px"
   height="800px"
   viewBox="0 0 24 24"
   version="1.1"
   id="svg1"
   sodipodi:docname="leaderboard.svg"
   inkscape:version="1.3.2 (091e20e, 2023-11-25, custom)"
   xmlns:inkscape="http://www.inkscape.org/namespaces/inkscape"
   xmlns:sodipodi="http://sodipodi.sourceforge.net/DTD/sodipodi-0.dtd"
   xmlns="http://www.w3.org/2000/svg"
   xmlns:svg="http://www.w3.org/2000/svg">
  <sodipodi:namedview
     id="namedview1"
     pagecolor="#ffffff"
     bordercolor="#000000"
     borderopacity="0.25"
     inkscape:showpageshadow="2"
     inkscape:pageopacity="0.0"
     inkscape:pagecheckerboard="0"
     inkscape:deskcolor="#d1d1d1"
     inkscape:zoom="0.35929863"
     inkscape:cx="86.279204"
     inkscape:cy="293.62761"
     inkscape:window-width="1920"
     inkscape:window-height="1009"
     inkscape:window-x="-8"
     inkscape:window-y="-8"
     inkscape:window-maximized="1"
     inkscape:current-layer="svg1" />
  <defs
     id="defs1" />
  <path
     d="M22,7H16.333V4a1,1,0,0,0-1-1H8.667a1,1,0,0,0-1,1v7H2a1,1,0,0,0-1,1v8a1,1,0,0,0,1,1H22a1,1,0,0,0,1-1V8A1,1,0,0,0,22,7ZM7.667,19H3V13H7.667Zm6.666,0H9.667V5h4.666ZM21,19H16.333V9H21Z"
     id="path1" />
  <path
     style="fill:#ff0000;stroke-width:2.10129"
     d="m 100.369,533.33333 v -99.38499 h 77.24478 77.24477 v 99.38499 99.385 H 177.61378 100.369 Z"
     id="path2"
     transform="scale(0.03)" />
  <path
     style="fill:#ffcc00;stroke-width:2.10129"
     d="M 545.14145,466.42066 V 300.123 h 77.24477 77.24478 v 166.29766 166.29767 h -77.24478 -77.24477 z"
     id="path3"
     transform="scale(0.03)" />
  <path
     style="fill:#ea4335;stroke-width:2.10129;fill-opacity:1"
     d="M 322.75523,400 V 167.28167 H 400 477.24477 V 400 632.71833 H 400 322.75523 Z"
     id="path4"
     transform="scale(0.03)" />
  <path
     style="fill:#4285f4;stroke-width:2.10129;fill-opacity:1"
     d="M 545.14145,466.42066 V 300.123 h 77.24477 77.24478 v 166.29766 166.29767 h -77.24478 -77.24477 z"
     id="path5"
     transform="scale(0.03)" />
  <path
     style="fill:#fbbc04;stroke-width:2.10129;fill-opacity:1"
     d="m 100.369,533.33333 v -99.38499 h 77.24478 77.24477 v 99.38499 99.385 H 177.61378 100.369 Z"
     id="path6"
     transform="scale(0.03)" />
</svg>
